<?xml version="1.0" encoding="UTF-8" standalone="no"?>
<!DOCTYPE svg PUBLIC "-//W3C//DTD SVG 1.1//EN"
 "http://www.w3.org/Graphics/SVG/1.1/DTD/svg11.dtd">
<!-- Generated by graphviz version 12.2.1 (0)
 -->
<!-- Title: packages_redteam_core Pages: 1 -->
<svg width="1918pt" height="476pt"
 viewBox="0.00 0.00 1918.27 476.00" xmlns="http://www.w3.org/2000/svg" xmlns:xlink="http://www.w3.org/1999/xlink">
<g id="graph0" class="graph" transform="scale(1 1) rotate(0) translate(4 472)">
<title>packages_redteam_core</title>
<polygon fill="white" stroke="none" points="-4,4 -4,-472 1914.27,-472 1914.27,4 -4,4"/>
<!-- redteam_core -->
<g id="node1" class="node">
<title>redteam_core</title>
<polygon fill="none" stroke="black" points="174.89,-36 84.64,-36 84.64,0 174.89,0 174.89,-36"/>
<text text-anchor="middle" x="129.77" y="-12.95" font-family="Times,serif" font-size="14.00">redteam_core</text>
</g>
<!-- redteam_core.__version__ -->
<g id="node2" class="node">
<title>redteam_core.__version__</title>
<polygon fill="none" stroke="black" points="190.14,-324 29.39,-324 29.39,-288 190.14,-288 190.14,-324"/>
<text text-anchor="middle" x="109.77" y="-300.95" font-family="Times,serif" font-size="14.00">redteam_core.__version__</text>
</g>
<!-- redteam_core&#45;&gt;redteam_core.__version__ -->
<g id="edge1" class="edge">
<title>redteam_core&#45;&gt;redteam_core.__version__</title>
<path fill="none" stroke="black" d="M84.34,-31.28C63.9,-39.32 41.72,-52.13 29.77,-72 -11.48,-140.55 -8.08,-181.52 29.77,-252 36.3,-264.16 46.98,-274 58.45,-281.75"/>
<polygon fill="black" stroke="black" points="66.71,-286.88 55.84,-285.43 63.49,-284.88 58.21,-281.6 58.21,-281.6 58.21,-281.6 63.49,-284.88 60.58,-277.78 66.71,-286.88"/>
</g>
<!-- redteam_core.common -->
<g id="node8" class="node">
<title>redteam_core.common</title>
<polygon fill="none" stroke="black" points="428.14,-324 285.39,-324 285.39,-288 428.14,-288 428.14,-324"/>
<text text-anchor="middle" x="356.77" y="-300.95" font-family="Times,serif" font-size="14.00">redteam_core.common</text>
</g>
<!-- redteam_core&#45;&gt;redteam_core.common -->
<g id="edge2" class="edge">
<title>redteam_core&#45;&gt;redteam_core.common</title>
<path fill="none" stroke="black" d="M110.61,-36.2C101.34,-45.75 91.1,-58.42 85.77,-72 68.21,-116.71 55.76,-139.62 81.77,-180 123.99,-245.58 209.97,-277.15 274.61,-292.09"/>
<polygon fill="black" stroke="black" points="284.01,-294.17 273.27,-296.4 280.31,-293.35 274.24,-292.01 274.24,-292.01 274.24,-292.01 280.31,-293.35 275.22,-287.62 284.01,-294.17"/>
</g>
<!-- redteam_core.constants -->
<g id="node9" class="node">
<title>redteam_core.constants</title>
<polygon fill="none" stroke="black" points="466.89,-252 322.64,-252 322.64,-216 466.89,-216 466.89,-252"/>
<text text-anchor="middle" x="394.77" y="-228.95" font-family="Times,serif" font-size="14.00">redteam_core.constants</text>
</g>
<!-- redteam_core&#45;&gt;redteam_core.constants -->
<g id="edge3" class="edge">
<title>redteam_core&#45;&gt;redteam_core.constants</title>
<path fill="none" stroke="black" d="M118.68,-36.31C99.6,-68.52 65.8,-138.16 100.77,-180 127.16,-211.58 233.81,-224.37 311.07,-229.54"/>
<polygon fill="black" stroke="black" points="321.03,-230.17 310.76,-234.02 317.25,-229.93 311.05,-229.53 311.05,-229.53 311.05,-229.53 317.25,-229.93 311.33,-225.04 321.03,-230.17"/>
</g>
<!-- redteam_core.miner -->
<g id="node10" class="node">
<title>redteam_core.miner</title>
<polygon fill="none" stroke="black" points="237.89,-108 111.64,-108 111.64,-72 237.89,-72 237.89,-108"/>
<text text-anchor="middle" x="174.77" y="-84.95" font-family="Times,serif" font-size="14.00">redteam_core.miner</text>
</g>
<!-- redteam_core&#45;&gt;redteam_core.miner -->
<g id="edge4" class="edge">
<title>redteam_core&#45;&gt;redteam_core.miner</title>
<path fill="none" stroke="black" d="M140.89,-36.3C146.01,-44.27 152.2,-53.9 157.88,-62.74"/>
<polygon fill="black" stroke="black" points="163.11,-70.87 153.92,-64.89 161.07,-67.69 157.71,-62.46 157.71,-62.46 157.71,-62.46 161.07,-67.69 161.49,-60.03 163.11,-70.87"/>
</g>
<!-- redteam_core.protocol -->
<g id="node12" class="node">
<title>redteam_core.protocol</title>
<polygon fill="none" stroke="black" points="396.27,-108 257.27,-108 257.27,-72 396.27,-72 396.27,-108"/>
<text text-anchor="middle" x="326.77" y="-84.95" font-family="Times,serif" font-size="14.00">redteam_core.protocol</text>
</g>
<!-- redteam_core&#45;&gt;redteam_core.protocol -->
<g id="edge5" class="edge">
<title>redteam_core&#45;&gt;redteam_core.protocol</title>
<path fill="none" stroke="black" d="M174.96,-35.06C202.4,-44.81 237.73,-57.36 267.4,-67.91"/>
<polygon fill="black" stroke="black" points="276.49,-71.14 265.56,-72.03 272.93,-69.87 267.07,-67.79 267.07,-67.79 267.07,-67.79 272.93,-69.87 268.58,-63.55 276.49,-71.14"/>
</g>
<!-- redteam_core.validator -->
<g id="node13" class="node">
<title>redteam_core.validator</title>
<polygon fill="none" stroke="black" points="1065.77,-108 923.77,-108 923.77,-72 1065.77,-72 1065.77,-108"/>
<text text-anchor="middle" x="994.77" y="-84.95" font-family="Times,serif" font-size="14.00">redteam_core.validator</text>
</g>
<!-- redteam_core&#45;&gt;redteam_core.validator -->
<g id="edge6" class="edge">
<title>redteam_core&#45;&gt;redteam_core.validator</title>
<path fill="none" stroke="black" d="M175.24,-34.16C178.11,-34.85 180.97,-35.48 183.77,-36 321.67,-61.82 734.7,-79.51 912.2,-86.12"/>
<polygon fill="black" stroke="black" points="922.08,-86.48 911.92,-90.61 918.3,-86.34 912.08,-86.11 912.08,-86.11 912.08,-86.11 918.3,-86.34 912.25,-81.62 922.08,-86.48"/>
</g>
<!-- redteam_core.challenge_pool -->
<g id="node3" class="node">
<title>redteam_core.challenge_pool</title>
<polygon fill="none" stroke="black" points="1386.02,-252 1209.52,-252 1209.52,-216 1386.02,-216 1386.02,-252"/>
<text text-anchor="middle" x="1297.77" y="-228.95" font-family="Times,serif" font-size="14.00">redteam_core.challenge_pool</text>
</g>
<!-- redteam_core.challenge_pool.active_challenges_manager -->
<g id="node4" class="node">
<title>redteam_core.challenge_pool.active_challenges_manager</title>
<polygon fill="none" stroke="black" points="1462.89,-324 1132.64,-324 1132.64,-288 1462.89,-288 1462.89,-324"/>
<text text-anchor="middle" x="1297.77" y="-300.95" font-family="Times,serif" font-size="14.00">redteam_core.challenge_pool.active_challenges_manager</text>
</g>
<!-- redteam_core.challenge_pool&#45;&gt;redteam_core.challenge_pool.active_challenges_manager -->
<g id="edge7" class="edge">
<title>redteam_core.challenge_pool&#45;&gt;redteam_core.challenge_pool.active_challenges_manager</title>
<path fill="none" stroke="black" d="M1297.77,-252.3C1297.77,-259.68 1297.77,-268.48 1297.77,-276.75"/>
<polygon fill="black" stroke="black" points="1297.77,-286.68 1293.27,-276.68 1297.77,-282.9 1297.77,-276.68 1297.77,-276.68 1297.77,-276.68 1297.77,-282.9 1302.27,-276.68 1297.77,-286.68"/>
</g>
<!-- redteam_core.validator.challenge_manager -->
<g id="node15" class="node">
<title>redteam_core.validator.challenge_manager</title>
<polygon fill="none" stroke="black" points="1423.14,-396 1172.39,-396 1172.39,-360 1423.14,-360 1423.14,-396"/>
<text text-anchor="middle" x="1297.77" y="-372.95" font-family="Times,serif" font-size="14.00">redteam_core.validator.challenge_manager</text>
</g>
<!-- redteam_core.challenge_pool.active_challenges_manager&#45;&gt;redteam_core.validator.challenge_manager -->
<g id="edge8" class="edge">
<title>redteam_core.challenge_pool.active_challenges_manager&#45;&gt;redteam_core.validator.challenge_manager</title>
<path fill="none" stroke="black" d="M1297.77,-324.3C1297.77,-331.68 1297.77,-340.48 1297.77,-348.75"/>
<polygon fill="black" stroke="black" points="1297.77,-358.68 1293.27,-348.68 1297.77,-354.9 1297.77,-348.68 1297.77,-348.68 1297.77,-348.68 1297.77,-354.9 1302.27,-348.68 1297.77,-358.68"/>
</g>
<!-- redteam_core.challenge_pool.base -->
<g id="node5" class="node">
<title>redteam_core.challenge_pool.base</title>
<polygon fill="none" stroke="black" points="1760.89,-396 1556.64,-396 1556.64,-360 1760.89,-360 1760.89,-396"/>
<text text-anchor="middle" x="1658.77" y="-372.95" font-family="Times,serif" font-size="14.00">redteam_core.challenge_pool.base</text>
</g>
<!-- redteam_core.validator.models -->
<g id="node19" class="node">
<title>redteam_core.validator.models</title>
<polygon fill="none" stroke="black" points="1390.14,-468 1205.39,-468 1205.39,-432 1390.14,-432 1390.14,-468"/>
<text text-anchor="middle" x="1297.77" y="-444.95" font-family="Times,serif" font-size="14.00">redteam_core.validator.models</text>
</g>
<!-- redteam_core.challenge_pool.base&#45;&gt;redteam_core.validator.models -->
<g id="edge9" class="edge">
<title>redteam_core.challenge_pool.base&#45;&gt;redteam_core.validator.models</title>
<path fill="none" stroke="black" d="M1568.6,-396.48C1516.93,-406.5 1451.94,-419.11 1398.58,-429.45"/>
<polygon fill="black" stroke="black" points="1388.92,-431.33 1397.88,-425 1392.63,-430.61 1398.73,-429.42 1398.73,-429.42 1398.73,-429.42 1392.63,-430.61 1399.59,-433.84 1388.92,-431.33"/>
</g>
<!-- redteam_core.challenge_pool.controller -->
<g id="node6" class="node">
<title>redteam_core.challenge_pool.controller</title>
<polygon fill="none" stroke="black" points="1751.14,-180 1518.39,-180 1518.39,-144 1751.14,-144 1751.14,-180"/>
<text text-anchor="middle" x="1634.77" y="-156.95" font-family="Times,serif" font-size="14.00">redteam_core.challenge_pool.controller</text>
</g>
<!-- redteam_core.challenge_pool.controller&#45;&gt;redteam_core.challenge_pool -->
<g id="edge10" class="edge">
<title>redteam_core.challenge_pool.controller&#45;&gt;redteam_core.challenge_pool</title>
<path fill="none" stroke="black" d="M1550.6,-180.48C1502.56,-190.46 1442.19,-203 1392.5,-213.32"/>
<polygon fill="black" stroke="black" points="1382.93,-215.31 1391.81,-208.87 1386.64,-214.54 1392.72,-213.28 1392.72,-213.28 1392.72,-213.28 1386.64,-214.54 1393.64,-217.68 1382.93,-215.31"/>
</g>
<!-- redteam_core.challenge_pool.controller&#45;&gt;redteam_core.challenge_pool.base -->
<g id="edge11" class="edge">
<title>redteam_core.challenge_pool.controller&#45;&gt;redteam_core.challenge_pool.base</title>
<path fill="none" stroke="black" d="M1636.69,-180.15C1640.82,-216.93 1650.55,-303.71 1655.6,-348.76"/>
<polygon fill="black" stroke="black" points="1656.7,-358.56 1651.11,-349.12 1656.28,-354.8 1655.59,-348.62 1655.59,-348.62 1655.59,-348.62 1656.28,-354.8 1660.06,-348.12 1656.7,-358.56"/>
</g>
<!-- redteam_core.challenge_pool.docker_utils -->
<g id="node7" class="node">
<title>redteam_core.challenge_pool.docker_utils</title>
<polygon fill="none" stroke="black" points="1910.27,-252 1663.27,-252 1663.27,-216 1910.27,-216 1910.27,-252"/>
<text text-anchor="middle" x="1786.77" y="-228.95" font-family="Times,serif" font-size="14.00">redteam_core.challenge_pool.docker_utils</text>
</g>
<!-- redteam_core.challenge_pool.controller&#45;&gt;redteam_core.challenge_pool.docker_utils -->
<g id="edge12" class="edge">
<title>redteam_core.challenge_pool.controller&#45;&gt;redteam_core.challenge_pool.docker_utils</title>
<path fill="none" stroke="black" d="M1672.73,-180.48C1692.76,-189.71 1717.53,-201.11 1738.86,-210.94"/>
<polygon fill="black" stroke="black" points="1747.92,-215.11 1736.95,-215.01 1744.48,-213.53 1738.84,-210.93 1738.84,-210.93 1738.84,-210.93 1744.48,-213.53 1740.72,-206.84 1747.92,-215.11"/>
</g>
<!-- redteam_core.challenge_pool.controller&#45;&gt;redteam_core.constants -->
<g id="edge13" class="edge">
<title>redteam_core.challenge_pool.controller&#45;&gt;redteam_core.constants</title>
<path fill="none" stroke="black" d="M1518.21,-169.82C1464.49,-172.95 1399.89,-176.69 1341.77,-180 1022.76,-198.18 643.28,-219.25 478.27,-228.38"/>
<polygon fill="black" stroke="black" points="468.46,-228.93 478.2,-223.88 472.24,-228.72 478.44,-228.37 478.44,-228.37 478.44,-228.37 472.24,-228.72 478.69,-232.87 468.46,-228.93"/>
</g>
<!-- redteam_core.challenge_pool.controller&#45;&gt;redteam_core.validator.models -->
<g id="edge14" class="edge">
<title>redteam_core.challenge_pool.controller&#45;&gt;redteam_core.validator.models</title>
<path fill="none" stroke="black" d="M1623.91,-180.43C1596.61,-222.92 1520.92,-332.98 1431.77,-396 1413.24,-409.1 1391.03,-419.56 1370.06,-427.62"/>
<polygon fill="black" stroke="black" points="1360.71,-431.08 1368.53,-423.39 1364.26,-429.77 1370.09,-427.61 1370.09,-427.61 1370.09,-427.61 1364.26,-429.77 1371.65,-431.83 1360.71,-431.08"/>
</g>
<!-- redteam_core.constants&#45;&gt;redteam_core.__version__ -->
<g id="edge15" class="edge">
<title>redteam_core.constants&#45;&gt;redteam_core.__version__</title>
<path fill="none" stroke="black" d="M323.59,-252.48C283.39,-262.36 233,-274.73 191.24,-284.99"/>
<polygon fill="black" stroke="black" points="181.72,-287.33 190.36,-280.57 185.39,-286.43 191.43,-284.94 191.43,-284.94 191.43,-284.94 185.39,-286.43 192.5,-289.31 181.72,-287.33"/>
</g>
<!-- redteam_core.constants&#45;&gt;redteam_core.common -->
<g id="edge16" class="edge">
<title>redteam_core.constants&#45;&gt;redteam_core.common</title>
<path fill="none" stroke="black" d="M385.38,-252.3C381.14,-260.1 376.04,-269.49 371.33,-278.17"/>
<polygon fill="black" stroke="black" points="366.63,-286.82 367.45,-275.89 368.44,-283.5 371.41,-278.04 371.41,-278.04 371.41,-278.04 368.44,-283.5 375.36,-280.18 366.63,-286.82"/>
</g>
<!-- redteam_core.miner.base_miner -->
<g id="node11" class="node">
<title>redteam_core.miner.base_miner</title>
<polygon fill="none" stroke="black" points="301.89,-180 109.64,-180 109.64,-144 301.89,-144 301.89,-180"/>
<text text-anchor="middle" x="205.77" y="-156.95" font-family="Times,serif" font-size="14.00">redteam_core.miner.base_miner</text>
</g>
<!-- redteam_core.miner&#45;&gt;redteam_core.miner.base_miner -->
<g id="edge17" class="edge">
<title>redteam_core.miner&#45;&gt;redteam_core.miner.base_miner</title>
<path fill="none" stroke="black" d="M182.43,-108.3C185.85,-116.02 189.95,-125.29 193.76,-133.89"/>
<polygon fill="black" stroke="black" points="197.7,-142.78 189.54,-135.46 196.17,-139.32 193.65,-133.64 193.65,-133.64 193.65,-133.64 196.17,-139.32 197.77,-131.82 197.7,-142.78"/>
</g>
<!-- redteam_core.protocol&#45;&gt;redteam_core.constants -->
<g id="edge18" class="edge">
<title>redteam_core.protocol&#45;&gt;redteam_core.constants</title>
<path fill="none" stroke="black" d="M328.59,-108.24C331.1,-126.82 336.75,-156.83 348.77,-180 353.93,-189.95 361.33,-199.6 368.68,-207.87"/>
<polygon fill="black" stroke="black" points="375.41,-215.06 365.29,-210.83 372.82,-212.3 368.58,-207.76 368.58,-207.76 368.58,-207.76 372.82,-212.3 371.86,-204.69 375.41,-215.06"/>
</g>
<!-- redteam_core.validator&#45;&gt;redteam_core.validator -->
<g id="edge19" class="edge">
<title>redteam_core.validator&#45;&gt;redteam_core.validator</title>
<path fill="none" stroke="black" d="M1065.99,-77.75C1076.6,-79.66 1083.77,-83.74 1083.77,-90 1083.77,-93.81 1081.11,-96.82 1076.63,-99.02"/>
<polygon fill="black" stroke="black" points="1067.16,-101.89 1075.42,-94.68 1070.78,-100.79 1076.73,-98.99 1076.73,-98.99 1076.73,-98.99 1070.78,-100.79 1078.04,-103.29 1067.16,-101.89"/>
</g>
<!-- redteam_core.validator&#45;&gt;redteam_core.validator.challenge_manager -->
<g id="edge20" class="edge">
<title>redteam_core.validator&#45;&gt;redteam_core.validator.challenge_manager</title>
<path fill="none" stroke="black" d="M1065.91,-96.22C1153.21,-103.59 1295.36,-119 1341.77,-144 1417.68,-184.88 1440.82,-207.52 1471.77,-288 1477.51,-302.93 1481.29,-311.14 1471.77,-324 1461.75,-337.53 1448.35,-347.72 1433.42,-355.38"/>
<polygon fill="black" stroke="black" points="1424.51,-359.54 1431.67,-351.23 1427.94,-357.94 1433.57,-355.31 1433.57,-355.31 1433.57,-355.31 1427.94,-357.94 1435.48,-359.39 1424.51,-359.54"/>
</g>
<!-- redteam_core.validator.log_handler -->
<g id="node17" class="node">
<title>redteam_core.validator.log_handler</title>
<polygon fill="none" stroke="black" points="789.52,-180 580.02,-180 580.02,-144 789.52,-144 789.52,-180"/>
<text text-anchor="middle" x="684.77" y="-156.95" font-family="Times,serif" font-size="14.00">redteam_core.validator.log_handler</text>
</g>
<!-- redteam_core.validator&#45;&gt;redteam_core.validator.log_handler -->
<g id="edge21" class="edge">
<title>redteam_core.validator&#45;&gt;redteam_core.validator.log_handler</title>
<path fill="none" stroke="black" d="M923.65,-107.06C878.78,-117.19 820.49,-130.35 772.72,-141.14"/>
<polygon fill="black" stroke="black" points="763.26,-143.28 772.02,-136.68 766.95,-142.44 773.02,-141.07 773.02,-141.07 773.02,-141.07 766.95,-142.44 774.01,-145.46 763.26,-143.28"/>
</g>
<!-- redteam_core.validator.miner_manager -->
<g id="node18" class="node">
<title>redteam_core.validator.miner_manager</title>
<polygon fill="none" stroke="black" points="1038.39,-180 807.14,-180 807.14,-144 1038.39,-144 1038.39,-180"/>
<text text-anchor="middle" x="922.77" y="-156.95" font-family="Times,serif" font-size="14.00">redteam_core.validator.miner_manager</text>
</g>
<!-- redteam_core.validator&#45;&gt;redteam_core.validator.miner_manager -->
<g id="edge22" class="edge">
<title>redteam_core.validator&#45;&gt;redteam_core.validator.miner_manager</title>
<path fill="none" stroke="black" d="M976.97,-108.3C968.4,-116.63 957.97,-126.78 948.55,-135.93"/>
<polygon fill="black" stroke="black" points="941.48,-142.8 945.52,-132.61 944.2,-140.17 948.65,-135.83 948.65,-135.83 948.65,-135.83 944.2,-140.17 951.79,-139.06 941.48,-142.8"/>
</g>
<!-- redteam_core.validator&#45;&gt;redteam_core.validator.models -->
<g id="edge23" class="edge">
<title>redteam_core.validator&#45;&gt;redteam_core.validator.models</title>
<path fill="none" stroke="black" d="M1017.44,-108.36C1028.2,-117.78 1040.31,-130.28 1047.77,-144 1067.08,-179.54 1066.77,-192.55 1066.77,-233 1066.77,-233 1066.77,-233 1066.77,-307 1066.77,-372.77 1135.58,-409.05 1198.09,-428.44"/>
<polygon fill="black" stroke="black" points="1207.29,-431.17 1196.42,-432.63 1203.67,-430.09 1197.7,-428.32 1197.7,-428.32 1197.7,-428.32 1203.67,-430.09 1198.99,-424.01 1207.29,-431.17"/>
</g>
<!-- redteam_core.validator.storage_manager -->
<g id="node20" class="node">
<title>redteam_core.validator.storage_manager</title>
<polygon fill="none" stroke="black" points="1332.77,-180 1094.77,-180 1094.77,-144 1332.77,-144 1332.77,-180"/>
<text text-anchor="middle" x="1213.77" y="-156.95" font-family="Times,serif" font-size="14.00">redteam_core.validator.storage_manager</text>
</g>
<!-- redteam_core.validator&#45;&gt;redteam_core.validator.storage_manager -->
<g id="edge24" class="edge">
<title>redteam_core.validator&#45;&gt;redteam_core.validator.storage_manager</title>
<path fill="none" stroke="black" d="M1049.47,-108.48C1079.63,-118.12 1117.27,-130.16 1148.91,-140.27"/>
<polygon fill="black" stroke="black" points="1158.23,-143.25 1147.33,-144.49 1154.63,-142.1 1148.7,-140.2 1148.7,-140.2 1148.7,-140.2 1154.63,-142.1 1150.07,-135.92 1158.23,-143.25"/>
</g>
<!-- redteam_core.validator.autoupdate -->
<g id="node14" class="node">
<title>redteam_core.validator.autoupdate</title>
<polygon fill="none" stroke="black" points="561.89,-180 357.64,-180 357.64,-144 561.89,-144 561.89,-180"/>
<text text-anchor="middle" x="459.77" y="-156.95" font-family="Times,serif" font-size="14.00">redteam_core.validator.autoupdate</text>
</g>
<!-- redteam_core.validator.autoupdate&#45;&gt;redteam_core.constants -->
<g id="edge25" class="edge">
<title>redteam_core.validator.autoupdate&#45;&gt;redteam_core.constants</title>
<path fill="none" stroke="black" d="M443.7,-180.3C435.99,-188.61 426.6,-198.72 418.11,-207.86"/>
<polygon fill="black" stroke="black" points="411.48,-215 414.99,-204.61 414.05,-212.23 418.28,-207.67 418.28,-207.67 418.28,-207.67 414.05,-212.23 421.58,-210.74 411.48,-215"/>
</g>
<!-- redteam_core.validator.challenge_manager&#45;&gt;redteam_core.validator.models -->
<g id="edge26" class="edge">
<title>redteam_core.validator.challenge_manager&#45;&gt;redteam_core.validator.models</title>
<path fill="none" stroke="black" d="M1297.77,-396.3C1297.77,-403.68 1297.77,-412.48 1297.77,-420.75"/>
<polygon fill="black" stroke="black" points="1297.77,-430.68 1293.27,-420.68 1297.77,-426.9 1297.77,-420.68 1297.77,-420.68 1297.77,-420.68 1297.77,-426.9 1302.27,-420.68 1297.77,-430.68"/>
</g>
<!-- redteam_core.validator.check_update_requirements -->
<g id="node16" class="node">
<title>redteam_core.validator.check_update_requirements</title>
<polygon fill="none" stroke="black" points="490.39,-36 193.14,-36 193.14,0 490.39,0 490.39,-36"/>
<text text-anchor="middle" x="341.77" y="-12.95" font-family="Times,serif" font-size="14.00">redteam_core.validator.check_update_requirements</text>
</g>
<!-- redteam_core.validator.log_handler&#45;&gt;redteam_core.constants -->
<g id="edge27" class="edge">
<title>redteam_core.validator.log_handler&#45;&gt;redteam_core.constants</title>
<path fill="none" stroke="black" d="M612.34,-180.48C571.52,-190.34 520.36,-202.69 477.91,-212.93"/>
<polygon fill="black" stroke="black" points="468.21,-215.27 476.88,-208.55 471.89,-214.38 477.93,-212.93 477.93,-212.93 477.93,-212.93 471.89,-214.38 478.99,-217.3 468.21,-215.27"/>
</g>
<!-- redteam_core.validator.miner_manager&#45;&gt;redteam_core.constants -->
<g id="edge28" class="edge">
<title>redteam_core.validator.miner_manager&#45;&gt;redteam_core.constants</title>
<path fill="none" stroke="black" d="M806.93,-178.9C804.19,-179.27 801.46,-179.64 798.77,-180 687.83,-194.88 559.7,-211.61 478,-222.22"/>
<polygon fill="black" stroke="black" points="468.24,-223.49 477.58,-217.74 471.99,-223 478.16,-222.2 478.16,-222.2 478.16,-222.2 471.99,-223 478.74,-226.67 468.24,-223.49"/>
</g>
<!-- redteam_core.validator.miner_manager&#45;&gt;redteam_core.validator.challenge_manager -->
<g id="edge29" class="edge">
<title>redteam_core.validator.miner_manager&#45;&gt;redteam_core.validator.challenge_manager</title>
<path fill="none" stroke="black" d="M939.68,-180.39C972.35,-213.04 1047.65,-283.84 1123.77,-324 1149.77,-337.72 1179.88,-348.47 1207.66,-356.6"/>
<polygon fill="black" stroke="black" points="1217.01,-359.25 1206.16,-360.85 1213.37,-358.22 1207.39,-356.52 1207.39,-356.52 1207.39,-356.52 1213.37,-358.22 1208.62,-352.19 1217.01,-359.25"/>
</g>
<!-- redteam_core.validator.storage_manager&#45;&gt;redteam_core.challenge_pool -->
<g id="edge30" class="edge">
<title>redteam_core.validator.storage_manager&#45;&gt;redteam_core.challenge_pool</title>
<path fill="none" stroke="black" d="M1234.53,-180.3C1244.73,-188.8 1257.19,-199.19 1268.35,-208.49"/>
<polygon fill="black" stroke="black" points="1276.02,-214.87 1265.45,-211.93 1273.11,-212.45 1268.33,-208.47 1268.33,-208.47 1268.33,-208.47 1273.11,-212.45 1271.21,-205.01 1276.02,-214.87"/>
</g>
<!-- redteam_core.validator.storage_manager&#45;&gt;redteam_core.validator.models -->
<g id="edge31" class="edge">
<title>redteam_core.validator.storage_manager&#45;&gt;redteam_core.validator.models</title>
<path fill="none" stroke="black" d="M1193.41,-180.05C1162.53,-208.11 1108.91,-266.65 1123.77,-324 1132.95,-359.44 1136.25,-371.86 1163.77,-396 1179.23,-409.57 1198.58,-419.89 1217.73,-427.64"/>
<polygon fill="black" stroke="black" points="1226.88,-431.15 1215.93,-431.77 1223.35,-429.79 1217.54,-427.57 1217.54,-427.57 1217.54,-427.57 1223.35,-429.79 1219.15,-423.37 1226.88,-431.15"/>
</g>
<!-- redteam_core.validator.utils -->
<g id="node21" class="node">
<title>redteam_core.validator.utils</title>
<polygon fill="none" stroke="black" points="676.89,-36 508.64,-36 508.64,0 676.89,0 676.89,-36"/>
<text text-anchor="middle" x="592.77" y="-12.95" font-family="Times,serif" font-size="14.00">redteam_core.validator.utils</text>
</g>
<!-- redteam_core.validator.validator -->
<g id="node22" class="node">
<title>redteam_core.validator.validator</title>
<polygon fill="none" stroke="black" points="888.27,-36 695.27,-36 695.27,0 888.27,0 888.27,-36"/>
<text text-anchor="middle" x="791.77" y="-12.95" font-family="Times,serif" font-size="14.00">redteam_core.validator.validator</text>
</g>
</g>
</svg>
